<svg width="44" height="44" viewBox="0 0 44 44" fill="none" xmlns="http://www.w3.org/2000/svg">
<path d="M21.3489 7.15696C21.6921 6.3318 22.861 6.3318 23.2042 7.15696L27.0015 16.2868C27.1462 16.6347 27.4733 16.8724 27.8489 16.9025L37.7053 17.6926C38.5962 17.7641 38.9574 18.8758 38.2787 19.4572L30.7691 25.8899C30.483 26.135 30.358 26.5196 30.4454 26.8861L32.7397 36.5043C32.9471 37.3736 32.0014 38.0607 31.2387 37.5948L22.8002 32.4406C22.4787 32.2443 22.0743 32.2443 21.7528 32.4406L13.3143 37.5948C12.5517 38.0607 11.606 37.3736 11.8133 36.5043L14.1076 26.8861C14.195 26.5196 14.0701 26.135 13.784 25.8899L6.27439 19.4572C5.59567 18.8758 5.95689 17.7641 6.84772 17.6926L16.7042 16.9025C17.0797 16.8724 17.4069 16.6347 17.5515 16.2868L21.3489 7.15696Z" stroke="#F8F9FA" stroke-width="2" stroke-linecap="round" stroke-linejoin="round"/>
</svg>
