<svg width="49" height="49" viewBox="0 0 49 49" fill="none" xmlns="http://www.w3.org/2000/svg">
<ellipse cx="24.2763" cy="24.3415" rx="23.8154" ry="23.8154" fill="#F2B94C"/>
<path d="M23.3489 9.15696C23.6921 8.3318 24.861 8.3318 25.2042 9.15696L29.0015 18.2868C29.1462 18.6347 29.4733 18.8724 29.8489 18.9025L39.7053 19.6926C40.5962 19.7641 40.9574 20.8758 40.2787 21.4572L32.7691 27.8899C32.483 28.135 32.358 28.5196 32.4454 28.8861L34.7397 38.5043C34.9471 39.3736 34.0014 40.0607 33.2387 39.5948L24.8002 34.4406C24.4787 34.2443 24.0743 34.2443 23.7528 34.4406L15.3143 39.5948C14.5517 40.0607 13.606 39.3736 13.8133 38.5043L16.1076 28.8861C16.195 28.5196 16.0701 28.135 15.784 27.8899L8.27439 21.4572C7.59567 20.8758 7.95689 19.7641 8.84772 19.6926L18.7042 18.9025C19.0797 18.8724 19.4069 18.6347 19.5515 18.2868L23.3489 9.15696Z" fill="#F8F9FA" stroke="#F8F9FA" stroke-width="2" stroke-linecap="round" stroke-linejoin="round"/>
</svg>
