<svg width="36" height="36" viewBox="0 0 36 36" fill="none" xmlns="http://www.w3.org/2000/svg">
<circle cx="18" cy="18" r="17" stroke="white" stroke-width="2"/>
<g clip-path="url(#clip0_555_2109)">
<path d="M15.2906 30.1846V22.0383H12.7651V18.2949H15.2906V16.682C15.2906 12.5119 17.1771 10.5795 21.2706 10.5795C21.68 10.5795 22.2455 10.6223 22.7692 10.6846C23.1615 10.725 23.5506 10.7915 23.934 10.8837V14.2779C23.7123 14.2573 23.49 14.245 23.2674 14.2412C23.018 14.2347 22.7686 14.2317 22.5191 14.232C21.7974 14.232 21.2339 14.33 20.8092 14.5474C20.5237 14.6907 20.2837 14.9105 20.1161 15.1824C19.8527 15.6112 19.7343 16.1981 19.7343 16.9709V18.2949H23.7349L23.3409 20.4417L23.0479 22.0383H19.7343V30.4551C25.8001 29.7221 30.5 24.5577 30.5 18.2949C30.5 11.5299 25.0151 6.04492 18.25 6.04492C11.4849 6.04492 6 11.5299 6 18.2949C6 24.0402 9.95471 28.8605 15.2906 30.1846Z" fill="white"/>
</g>
<defs>
<clipPath id="clip0_555_2109">
<rect width="24.5" height="24.5" fill="white" transform="translate(6 6)"/>
</clipPath>
</defs>
</svg>
