<svg width="30" height="30" viewBox="0 0 30 30" fill="none" xmlns="http://www.w3.org/2000/svg">
<path fill-rule="evenodd" clip-rule="evenodd" d="M16.2042 2.85729C16.052 2.65317 15.8233 2.51975 15.5707 2.48769C15.3181 2.45563 15.0633 2.5277 14.8649 2.68732C12.5272 4.56834 10.8967 7.29726 10.4415 10.408C9.62081 9.81307 8.89999 9.08821 8.30949 8.26357C8.14705 8.03672 7.892 7.89401 7.61369 7.87424C7.33537 7.85447 7.06271 7.9597 6.86983 8.16132C4.93809 10.1806 3.75 12.9211 3.75 15.9371C3.75 22.1503 8.7868 27.1871 15 27.1871C21.2132 27.1871 26.25 22.1503 26.25 15.9371C26.25 11.361 23.5179 7.42505 19.5997 5.66763C18.2132 4.99076 17.0683 4.01611 16.2042 2.85729ZM19.6875 17.8126C19.6875 20.4015 17.5888 22.5001 15 22.5001C12.4112 22.5001 10.3125 20.4015 10.3125 17.8126C10.3125 17.3009 10.3945 16.8084 10.546 16.3475C11.3316 16.9282 12.2346 17.3593 13.2129 17.5984C13.4827 15.8474 14.3582 14.2963 15.6186 13.1656C17.9151 13.4683 19.6875 15.4335 19.6875 17.8126Z" fill="#F2994A"/>
</svg>
