<svg width="36" height="36" viewBox="0 0 36 36" fill="none" xmlns="http://www.w3.org/2000/svg">
<circle cx="18" cy="18" r="17" stroke="white" stroke-width="2"/>
<g clip-path="url(#clip0_555_2105)">
<path d="M13.5825 7.40769C12.4475 7.4612 11.6725 7.64236 10.9949 7.90849C10.2937 8.18182 9.69935 8.54849 9.10797 9.142C8.51668 9.73551 8.15241 10.3303 7.88112 11.0327C7.61855 11.7116 7.44059 12.4873 7.39046 13.6229C7.34032 14.7584 7.32921 15.1235 7.33481 18.0202C7.34032 20.9168 7.35312 21.2799 7.40815 22.4178C7.46237 23.5525 7.64281 24.3273 7.90904 25.0051C8.18281 25.7064 8.54904 26.3005 9.14281 26.892C9.7365 27.4836 10.3308 27.847 11.0348 28.1187C11.7132 28.3809 12.4891 28.5597 13.6245 28.6094C14.7599 28.6592 15.1253 28.6707 18.0211 28.6651C20.9169 28.6596 21.2816 28.6467 22.4192 28.5928C23.5569 28.5388 24.3276 28.357 25.0057 28.092C25.7069 27.8177 26.3015 27.452 26.8926 26.8582C27.4837 26.2642 27.8477 25.669 28.1188 24.9663C28.3817 24.2879 28.5602 23.512 28.6095 22.3775C28.6593 21.2389 28.671 20.8754 28.6655 17.9792C28.6599 15.083 28.6468 14.7199 28.5929 13.5824C28.5389 12.4448 28.3582 11.6724 28.0921 10.9942C27.818 10.2929 27.4521 9.69924 26.8587 9.10724C26.2652 8.51524 25.6695 8.15151 24.9671 7.88102C24.2881 7.61836 23.5128 7.43942 22.3774 7.39036C21.242 7.34129 20.8766 7.32858 17.9797 7.33427C15.0828 7.33978 14.7201 7.35222 13.5825 7.40769ZM13.7071 26.6904C12.6671 26.6452 12.1024 26.4724 11.726 26.3278C11.2277 26.1358 10.8727 25.9037 10.4977 25.5322C10.1225 25.1608 9.89224 24.8046 9.69766 24.3073C9.55152 23.931 9.37552 23.3669 9.3269 22.3269C9.27401 21.2029 9.2629 20.8654 9.25668 18.0176C9.25046 15.1698 9.26139 14.8327 9.31064 13.7082C9.35508 12.6691 9.52895 12.1038 9.6733 11.7276C9.8653 11.2287 10.0966 10.8743 10.4689 10.4995C10.8411 10.1247 11.1963 9.89382 11.694 9.69924C12.07 9.55249 12.634 9.378 13.6736 9.32849C14.7985 9.27516 15.1355 9.26449 17.9829 9.25827C20.8303 9.25204 21.1682 9.26271 22.2936 9.31231C23.3327 9.35747 23.8983 9.52964 24.274 9.67498C24.7725 9.86698 25.1273 10.0976 25.5021 10.4705C25.8769 10.8433 26.108 11.1973 26.3025 11.696C26.4495 12.0709 26.6241 12.6347 26.6731 13.675C26.7266 14.7999 26.7388 15.1372 26.7439 17.9843C26.749 20.8314 26.739 21.1696 26.6897 22.2936C26.6443 23.3336 26.4719 23.8985 26.327 24.2753C26.135 24.7735 25.9036 25.1287 25.5311 25.5032C25.1586 25.8779 24.8039 26.1087 24.3059 26.3032C23.9305 26.4498 23.3657 26.6248 22.3271 26.6743C21.2021 26.7272 20.865 26.7383 18.0166 26.7445C15.1681 26.7507 14.832 26.7392 13.7071 26.6904ZM22.4028 12.2987C22.4032 12.5519 22.4787 12.7993 22.6198 13.0095C22.7608 13.2198 22.961 13.3835 23.1951 13.48C23.4292 13.5765 23.6866 13.6014 23.9348 13.5515C24.183 13.5017 24.4109 13.3793 24.5896 13.2C24.7683 13.0206 24.8898 12.7923 24.9387 12.5439C24.9876 12.2955 24.9618 12.0381 24.8644 11.8044C24.7671 11.5707 24.6026 11.3711 24.3918 11.2309C24.181 11.0906 23.9333 11.0161 23.6801 11.0166C23.3408 11.0173 23.0155 11.1527 22.776 11.3932C22.5365 11.6336 22.4022 11.9593 22.4028 12.2987ZM12.5233 18.0104C12.5292 21.0354 14.986 23.4821 18.0104 23.4764C21.0349 23.4706 23.4833 21.0141 23.4776 17.989C23.4718 14.964 21.0145 12.5166 17.9896 12.5225C14.9647 12.5285 12.5176 14.9856 12.5233 18.0104ZM14.4446 18.0065C14.4432 17.3033 14.6504 16.6155 15.0399 16.03C15.4294 15.4445 15.9838 14.9877 16.633 14.7173C17.2821 14.4469 17.9969 14.3751 18.6869 14.5109C19.3769 14.6467 20.0111 14.9841 20.5093 15.4804C21.0075 15.9766 21.3474 16.6095 21.486 17.2989C21.6246 17.9884 21.5556 18.7034 21.2878 19.3536C21.0199 20.0038 20.5653 20.56 19.9814 20.9519C19.3975 21.3438 18.7105 21.5537 18.0073 21.5551C17.5403 21.556 17.0778 21.465 16.646 21.2872C16.2142 21.1094 15.8217 20.8483 15.4909 20.5188C15.16 20.1892 14.8974 19.7978 14.7178 19.3667C14.5383 18.9357 14.4455 18.4735 14.4446 18.0065Z" fill="white"/>
</g>
<defs>
<clipPath id="clip0_555_2105">
<rect width="21.3333" height="21.3333" fill="white" transform="translate(7.3335 7.33301)"/>
</clipPath>
</defs>
</svg>
