<svg width="28" height="28" viewBox="0 0 28 28" fill="none" xmlns="http://www.w3.org/2000/svg">
<path d="M10.0625 14C10.0625 14.2416 9.86662 14.4375 9.625 14.4375C9.38338 14.4375 9.1875 14.2416 9.1875 14C9.1875 13.7584 9.38338 13.5625 9.625 13.5625C9.86662 13.5625 10.0625 13.7584 10.0625 14ZM10.0625 14H9.625M14.4375 14C14.4375 14.2416 14.2416 14.4375 14 14.4375C13.7584 14.4375 13.5625 14.2416 13.5625 14C13.5625 13.7584 13.7584 13.5625 14 13.5625C14.2416 13.5625 14.4375 13.7584 14.4375 14ZM14.4375 14H14M18.8125 14C18.8125 14.2416 18.6166 14.4375 18.375 14.4375C18.1334 14.4375 17.9375 14.2416 17.9375 14C17.9375 13.7584 18.1334 13.5625 18.375 13.5625C18.6166 13.5625 18.8125 13.7584 18.8125 14ZM18.8125 14H18.375M24.5 14C24.5 19.799 19.799 24.5 14 24.5C8.20101 24.5 3.5 19.799 3.5 14C3.5 8.20101 8.20101 3.5 14 3.5C19.799 3.5 24.5 8.20101 24.5 14Z" stroke="#F2B94C" stroke-linecap="round" stroke-linejoin="round"/>
</svg>
