<svg width="40" height="40" viewBox="0 0 40 40" fill="none" xmlns="http://www.w3.org/2000/svg">
<path d="M3.75 26.25L12.3484 17.6516C13.8128 16.1872 16.1872 16.1872 17.6517 17.6517L26.25 26.25M23.75 23.75L26.0984 21.4016C27.5628 19.9372 29.9372 19.9372 31.4017 21.4017L36.25 26.25M6.25 32.5H33.75C35.1307 32.5 36.25 31.3807 36.25 30V10C36.25 8.61929 35.1307 7.5 33.75 7.5H6.25C4.86929 7.5 3.75 8.61929 3.75 10V30C3.75 31.3807 4.86929 32.5 6.25 32.5ZM23.75 13.75H23.7625V13.7625H23.75V13.75ZM24.375 13.75C24.375 14.0952 24.0952 14.375 23.75 14.375C23.4048 14.375 23.125 14.0952 23.125 13.75C23.125 13.4048 23.4048 13.125 23.75 13.125C24.0952 13.125 24.375 13.4048 24.375 13.75Z" stroke="#F2B94C" stroke-width="1.5" stroke-linecap="round" stroke-linejoin="round"/>
</svg>
