<svg width="40" height="40" viewBox="0 0 40 40" fill="none" xmlns="http://www.w3.org/2000/svg">
<path d="M14.375 20C14.375 20.3452 14.0952 20.625 13.75 20.625C13.4048 20.625 13.125 20.3452 13.125 20C13.125 19.6548 13.4048 19.375 13.75 19.375C14.0952 19.375 14.375 19.6548 14.375 20ZM14.375 20H13.75M20.625 20C20.625 20.3452 20.3452 20.625 20 20.625C19.6548 20.625 19.375 20.3452 19.375 20C19.375 19.6548 19.6548 19.375 20 19.375C20.3452 19.375 20.625 19.6548 20.625 20ZM20.625 20H20M26.875 20C26.875 20.3452 26.5952 20.625 26.25 20.625C25.9048 20.625 25.625 20.3452 25.625 20C25.625 19.6548 25.9048 19.375 26.25 19.375C26.5952 19.375 26.875 19.6548 26.875 20ZM26.875 20H26.25M35 20C35 28.2843 28.2843 35 20 35C11.7157 35 5 28.2843 5 20C5 11.7157 11.7157 5 20 5C28.2843 5 35 11.7157 35 20Z" stroke="#F2B94C" stroke-width="1.5" stroke-linecap="round" stroke-linejoin="round"/>
</svg>
