<svg width="28" height="24" viewBox="0 0 28 24" fill="none" xmlns="http://www.w3.org/2000/svg">
<path d="M8.21233 10.9071C7.77508 10.2169 6.93651 9.75 5.97385 9.75C4.55985 9.75 3.41357 10.7574 3.41357 12C3.41357 13.2426 4.55985 14.25 5.97385 14.25C6.93651 14.25 7.77508 13.7831 8.21233 13.0929M8.21233 10.9071C8.41733 11.2307 8.53412 11.6034 8.53412 12C8.53412 12.3966 8.41733 12.7693 8.21233 13.0929M8.21233 10.9071L19.097 5.5929M8.21233 13.0929L19.097 18.4071M19.097 18.4071C18.892 18.7307 18.7752 19.1034 18.7752 19.5C18.7752 20.7426 19.9215 21.75 21.3355 21.75C22.7495 21.75 23.8957 20.7426 23.8957 19.5C23.8957 18.2574 22.7495 17.25 21.3355 17.25C20.3728 17.25 19.5342 17.7169 19.097 18.4071ZM19.097 5.5929C19.5342 6.28309 20.3728 6.75 21.3355 6.75C22.7495 6.75 23.8957 5.74264 23.8957 4.5C23.8957 3.25736 22.7495 2.25 21.3355 2.25C19.9215 2.25 18.7752 3.25736 18.7752 4.5C18.7752 4.89664 18.892 5.26931 19.097 5.5929Z" stroke="#F2994A" stroke-width="1.5" stroke-linecap="round" stroke-linejoin="round"/>
</svg>
