<svg width="25" height="25" viewBox="0 0 25 25" fill="none" xmlns="http://www.w3.org/2000/svg">
<ellipse cx="12.1069" cy="12.6147" rx="11.9077" ry="11.9077" fill="#9FB0F2"/>
<path d="M13.8093 11.0067H17.6414C17.9156 11.0068 18.1853 11.0768 18.4248 11.2104C18.6642 11.3439 18.8656 11.5364 19.0098 11.7696C19.154 12.0028 19.2362 12.269 19.2485 12.543C19.2609 12.8169 19.2031 13.0894 19.0805 13.3347L16.2651 18.9654C16.1315 19.2329 15.926 19.4578 15.6716 19.6149C15.4173 19.7721 15.1242 19.8552 14.8252 19.8551H11.594C11.4629 19.8551 11.3318 19.839 11.2039 19.8068L8.17852 19.0507M13.8093 11.0067V6.98477C13.8093 6.55809 13.6398 6.14889 13.3381 5.84718C13.0364 5.54547 12.6272 5.37598 12.2005 5.37598H12.1241C11.7219 5.37598 11.3961 5.70176 11.3961 6.10395C11.3961 6.67829 11.2264 7.23976 10.907 7.71757L8.17852 11.8111V19.0507M13.8093 11.0067H12.2005M8.17852 19.0507H6.56973C6.14305 19.0507 5.73385 18.8812 5.43214 18.5795C5.13043 18.2778 4.96094 17.8686 4.96094 17.4419V12.6155C4.96094 12.1889 5.13043 11.7797 5.43214 11.478C5.73385 11.1762 6.14305 11.0067 6.56973 11.0067H8.58072" stroke="#F8F9FA" stroke-linecap="round" stroke-linejoin="round"/>
</svg>
