<svg width="20" height="20" viewBox="0 0 20 20" fill="none" xmlns="http://www.w3.org/2000/svg">
<path d="M9.333 2.86661C9.48553 2.49987 10.0051 2.49987 10.1576 2.86661L11.8453 6.92432C11.9096 7.07892 12.055 7.18456 12.2219 7.19794L16.6025 7.54914C16.9985 7.58088 17.159 8.07498 16.8574 8.33337L13.5198 11.1924C13.3926 11.3013 13.3371 11.4722 13.3759 11.6351L14.3956 15.9099C14.4878 16.2962 14.0675 16.6016 13.7285 16.3946L9.97806 14.1038C9.83516 14.0165 9.65544 14.0165 9.51254 14.1038L5.7621 16.3946C5.42313 16.6016 5.00283 16.2962 5.09499 15.9099L6.11467 11.6351C6.15353 11.4722 6.09799 11.3013 5.97082 11.1924L2.63323 8.33337C2.33158 8.07498 2.49212 7.58088 2.88805 7.54914L7.26869 7.19794C7.4356 7.18456 7.581 7.07892 7.6453 6.92432L9.333 2.86661Z" stroke="#F8F9FA" stroke-linecap="round" stroke-linejoin="round"/>
</svg>
