<svg width="16" height="17" viewBox="0 0 16 17" fill="none" xmlns="http://www.w3.org/2000/svg">
<path d="M9.80929 7.00675H13.6414C13.9156 7.00676 14.1853 7.07684 14.4248 7.21036C14.6642 7.34387 14.8656 7.53638 15.0098 7.76961C15.154 8.00283 15.2362 8.26904 15.2485 8.54295C15.2609 8.81686 15.2031 9.08939 15.0805 9.33467L12.2651 14.9654C12.1315 15.2329 11.926 15.4578 11.6716 15.6149C11.4173 15.7721 11.1242 15.8552 10.8252 15.8551H7.59398C7.46287 15.8551 7.33175 15.839 7.20385 15.8068L4.17852 15.0507M9.80929 7.00675V2.98477C9.80929 2.55809 9.63979 2.14889 9.33808 1.84718C9.03638 1.54547 8.62718 1.37598 8.2005 1.37598H8.12408C7.72188 1.37598 7.3961 1.70176 7.3961 2.10395C7.3961 2.67829 7.22638 3.23976 6.90703 3.71757L4.17852 7.81114V15.0507M9.80929 7.00675H8.2005M4.17852 15.0507H2.56973C2.14305 15.0507 1.73385 14.8812 1.43214 14.5795C1.13043 14.2778 0.960938 13.8686 0.960938 13.4419V8.61554C0.960938 8.18886 1.13043 7.77966 1.43214 7.47795C1.73385 7.17624 2.14305 7.00675 2.56973 7.00675H4.58072" stroke="#F8F9FA" stroke-linecap="round" stroke-linejoin="round"/>
</svg>
