<svg width="25" height="25" viewBox="0 0 25 25" fill="none" xmlns="http://www.w3.org/2000/svg">
<ellipse cx="12.7456" cy="12.615" rx="11.9077" ry="11.9077" fill="#F2B94C"/>
<path d="M12.333 5.86661C12.4855 5.49987 13.0051 5.49987 13.1576 5.86661L14.8453 9.92432C14.9096 10.0789 15.055 10.1846 15.2219 10.1979L19.6025 10.5491C19.9985 10.5809 20.159 11.075 19.8574 11.3334L16.5198 14.1924C16.3926 14.3013 16.3371 14.4722 16.3759 14.6351L17.3956 18.9099C17.4878 19.2962 17.0675 19.6016 16.7285 19.3946L12.9781 17.1038C12.8352 17.0165 12.6554 17.0165 12.5125 17.1038L8.7621 19.3946C8.42313 19.6016 8.00283 19.2962 8.09499 18.9099L9.11467 14.6351C9.15353 14.4722 9.09799 14.3013 8.97082 14.1924L5.63323 11.3334C5.33158 11.075 5.49212 10.5809 5.88805 10.5491L10.2687 10.1979C10.4356 10.1846 10.581 10.0789 10.6453 9.92432L12.333 5.86661Z" stroke="#F8F9FA" stroke-linecap="round" stroke-linejoin="round"/>
</svg>
