<svg width="23" height="23" viewBox="0 0 23 23" fill="none" xmlns="http://www.w3.org/2000/svg">
<path fill-rule="evenodd" clip-rule="evenodd" d="M7.12242 5.73239C7.12242 3.43064 8.98836 1.5647 11.2901 1.5647C13.5919 1.5647 15.4578 3.43064 15.4578 5.73239C15.4578 8.03414 13.5919 9.90008 11.2901 9.90008C8.98836 9.90008 7.12242 8.03414 7.12242 5.73239Z" fill="#F8F9FA"/>
<path fill-rule="evenodd" clip-rule="evenodd" d="M3.65049 18.7961C3.72212 14.6379 7.11499 11.2893 11.2901 11.2893C15.4653 11.2893 18.8583 14.638 18.9297 18.7964C18.9345 19.0722 18.7756 19.3246 18.5249 19.4396C16.3216 20.4506 13.8709 21.0139 11.2904 21.0139C8.70972 21.0139 6.25872 20.4505 4.05529 19.4394C3.80461 19.3243 3.64574 19.0719 3.65049 18.7961Z" fill="#F8F9FA"/>
</svg>
