<svg width="29" height="29" viewBox="0 0 29 29" fill="none" xmlns="http://www.w3.org/2000/svg">
<ellipse cx="14.2892" cy="14.2892" rx="14.2892" ry="14.2892" fill="#F2B94C"/>
<path fill-rule="evenodd" clip-rule="evenodd" d="M10.1224 8.73239C10.1224 6.43064 11.9884 4.5647 14.2901 4.5647C16.5919 4.5647 18.4578 6.43064 18.4578 8.73239C18.4578 11.0341 16.5919 12.9001 14.2901 12.9001C11.9884 12.9001 10.1224 11.0341 10.1224 8.73239Z" fill="#F8F9FA"/>
<path fill-rule="evenodd" clip-rule="evenodd" d="M6.65049 21.7961C6.72212 17.6379 10.115 14.2893 14.2901 14.2893C18.4653 14.2893 21.8583 17.638 21.9297 21.7964C21.9345 22.0722 21.7756 22.3246 21.5249 22.4397C19.3216 23.4506 16.8709 24.0139 14.2904 24.0139C11.7097 24.0139 9.25872 23.4505 7.05529 22.4394C6.80461 22.3243 6.64574 22.0719 6.65049 21.7961Z" fill="#F8F9FA"/>
</svg>
