<svg width="25" height="25" viewBox="0 0 25 25" fill="none" xmlns="http://www.w3.org/2000/svg">
<path d="M11.6545 4.2652C11.8452 3.80678 12.4946 3.80678 12.6853 4.2652L14.7949 9.33734C14.8753 9.5306 15.057 9.66265 15.2657 9.67937L20.7415 10.1184C21.2364 10.158 21.437 10.7757 21.06 11.0987L16.888 14.6724C16.729 14.8086 16.6596 15.0222 16.7082 15.2258L17.9828 20.5693C18.098 21.0522 17.5726 21.4339 17.1489 21.1751L12.4609 18.3117C12.2822 18.2026 12.0576 18.2026 11.879 18.3117L7.1909 21.1751C6.7672 21.4339 6.24181 21.0522 6.35701 20.5693L7.63162 15.2258C7.68019 15.0222 7.61077 14.8086 7.45181 14.6724L3.27982 11.0987C2.90276 10.7757 3.10344 10.158 3.59834 10.1184L9.07414 9.67937C9.28278 9.66265 9.46453 9.5306 9.54491 9.33734L11.6545 4.2652Z" stroke="#F2B94C" stroke-linecap="round" stroke-linejoin="round"/>
</svg>
