<svg width="32" height="32" viewBox="0 0 32 32" fill="none" xmlns="http://www.w3.org/2000/svg">
<path fill-rule="evenodd" clip-rule="evenodd" d="M12.6592 19.3342C12.5088 19.1846 12.4239 18.9814 12.4233 18.7693C12.4227 18.5571 12.5064 18.3534 12.656 18.203L18.304 12.5358C18.4556 12.3957 18.6555 12.3195 18.8619 12.3234C19.0683 12.3272 19.2652 12.4107 19.4115 12.5564C19.5578 12.702 19.6421 12.8986 19.6468 13.105C19.6515 13.3114 19.5763 13.5116 19.4368 13.6638L13.7888 19.3326C13.6388 19.4821 13.4357 19.566 13.224 19.566C13.0122 19.566 12.8091 19.4837 12.6592 19.3342Z" fill="black"/>
<path fill-rule="evenodd" clip-rule="evenodd" d="M27.2641 5.60797C27.2876 5.4804 27.2796 5.34904 27.241 5.22521C27.2024 5.10139 27.1343 4.9888 27.0425 4.89716C26.9507 4.80553 26.838 4.73758 26.7141 4.69919C26.5902 4.66079 26.4588 4.6531 26.3313 4.67677L22.1713 5.45277C22.0125 5.48235 21.8663 5.55933 21.7521 5.67357L11.5201 15.9424C11.3701 16.0924 11.2859 16.2958 11.2859 16.508C11.2859 16.7201 11.3701 16.9235 11.5201 17.0736L14.9217 20.4608C15.0717 20.6107 15.2752 20.695 15.4873 20.695C15.6994 20.695 15.9029 20.6107 16.0529 20.4608L26.2833 10.1904C26.3978 10.0757 26.4748 9.92896 26.5041 9.76957L27.2641 5.60797ZM26.0385 3.10397C26.4209 3.03282 26.8148 3.05568 27.1864 3.17057C27.558 3.28547 27.8961 3.48895 28.1716 3.76351C28.4471 4.03807 28.6518 4.37547 28.768 4.74667C28.8841 5.11787 28.9083 5.51174 28.8385 5.89437L28.0801 10.0576C27.993 10.5361 27.7626 10.9769 27.4193 11.3216L17.1889 21.5888C16.9664 21.8122 16.7021 21.9896 16.4111 22.1109C16.12 22.2321 15.8079 22.2949 15.4926 22.2955C15.1773 22.2961 14.865 22.2345 14.5735 22.1144C14.282 21.9942 14.017 21.8178 13.7937 21.5952L10.3937 18.208C10.1703 17.9855 9.99284 17.7212 9.87158 17.4301C9.75033 17.1391 9.68761 16.827 9.68702 16.5117C9.68642 16.1964 9.74796 15.8841 9.86812 15.5926C9.98828 15.301 10.1647 15.0361 10.3873 14.8128L20.6177 4.54397C20.9608 4.19951 21.4005 3.9674 21.8785 3.87837L26.0385 3.10397Z" fill="black"/>
<path fill-rule="evenodd" clip-rule="evenodd" d="M5.29607 15.3886C5.59263 15.0905 5.94506 14.8537 6.33319 14.6918C6.72132 14.53 7.13755 14.4462 7.55808 14.4453C7.97861 14.4444 8.39519 14.5264 8.78401 14.6866C9.17282 14.8469 9.52625 15.0821 9.82407 15.379L16.6241 22.155C17.2254 22.754 17.5641 23.5673 17.5658 24.416C17.5674 25.2647 17.2318 26.0793 16.6329 26.6806C16.0339 27.2819 15.2206 27.6207 14.3719 27.6223C13.5232 27.624 12.7086 27.2884 12.1073 26.6894L5.30567 19.9134C4.7047 19.3144 4.36625 18.5012 4.36475 17.6527C4.36325 16.8042 4.69882 15.9898 5.29767 15.3886M8.69447 16.5134C8.54654 16.361 8.36973 16.2395 8.17436 16.1561C7.97898 16.0727 7.76895 16.029 7.55652 16.0276C7.34409 16.0262 7.1335 16.0672 6.93706 16.148C6.74062 16.2289 6.56224 16.3481 6.41235 16.4986C6.26245 16.6491 6.14403 16.828 6.064 17.0248C5.98397 17.2216 5.94392 17.4323 5.94621 17.6448C5.94849 17.8572 5.99305 18.067 6.07729 18.262C6.16154 18.4571 6.28377 18.6334 6.43687 18.7806L13.2369 25.555C13.5375 25.8546 13.9449 26.0225 14.3693 26.0218C14.7937 26.021 15.2005 25.8517 15.5001 25.551C15.7997 25.2504 15.9675 24.843 15.9668 24.4186C15.966 23.9942 15.7967 23.5874 15.4961 23.2878L8.69447 16.5134Z" fill="black"/>
<path fill-rule="evenodd" clip-rule="evenodd" d="M8.19371 21.6524L3.67691 26.1868C3.52714 26.337 3.44318 26.5406 3.44348 26.7527C3.44378 26.9649 3.52832 27.1682 3.67851 27.318L4.81291 28.4476C4.96314 28.5974 5.16671 28.6813 5.37884 28.681C5.59097 28.6807 5.7943 28.5962 5.94411 28.446L10.4609 23.9116L11.5953 25.0412L7.07691 29.5756C6.62754 30.0257 6.0179 30.279 5.3819 30.2799C4.7459 30.2808 4.13555 30.0292 3.68491 29.5804L2.54891 28.4524C2.32557 28.2299 2.14828 27.9655 2.02716 27.6743C1.90604 27.3832 1.84347 27.0711 1.84302 26.7558C1.84257 26.4405 1.90426 26.1282 2.02456 25.8368C2.14485 25.5453 2.3214 25.2804 2.54411 25.0572L7.06091 20.5244L8.19371 21.6524Z" fill="black"/>
</svg>
