<svg width="36" height="36" viewBox="0 0 36 36" fill="none" xmlns="http://www.w3.org/2000/svg">
<path fill-rule="evenodd" clip-rule="evenodd" d="M11.25 9C11.25 5.27208 14.2721 2.25 18 2.25C21.7279 2.25 24.75 5.27208 24.75 9C24.75 12.7279 21.7279 15.75 18 15.75C14.2721 15.75 11.25 12.7279 11.25 9Z" fill="#0F172A"/>
<path fill-rule="evenodd" clip-rule="evenodd" d="M5.62688 30.158C5.74289 23.4234 11.238 18 18 18C24.7622 18 30.2574 23.4236 30.3731 30.1585C30.3808 30.6051 30.1235 31.014 29.7175 31.2003C26.1491 32.8377 22.1798 33.75 18.0005 33.75C13.8208 33.75 9.85116 32.8375 6.28249 31.1998C5.87649 31.0135 5.61918 30.6046 5.62688 30.158Z" fill="#0F172A"/>
</svg>
