<svg width="22" height="20" viewBox="0 0 22 20" fill="none" xmlns="http://www.w3.org/2000/svg">
<path d="M10.4754 1.91699H3.10565C2.5472 1.91699 2.01162 2.11169 1.61673 2.45825C1.22184 2.80481 1 3.27485 1 3.76496V16.7007C1 17.1908 1.22184 17.6609 1.61673 18.0074C2.01162 18.354 2.5472 18.5487 3.10565 18.5487H17.8452C18.4037 18.5487 18.9393 18.354 19.3341 18.0074C19.729 17.6609 19.9509 17.1908 19.9509 16.7007V10.2328" stroke="#636363" stroke-width="2" stroke-linecap="round" stroke-linejoin="round"/>
<path d="M17.1875 1.57409C17.6064 1.20651 18.1744 1 18.7668 1C19.3591 1 19.9272 1.20651 20.346 1.57409C20.7649 1.94167 21.0002 2.44022 21.0002 2.96006C21.0002 3.4799 20.7649 3.97845 20.346 4.34604L10.8569 12.6748C10.6069 12.894 10.2981 13.0545 9.95883 13.1414L6.93406 13.9176C6.84347 13.9408 6.74744 13.9422 6.65602 13.9216C6.5646 13.901 6.48117 13.8593 6.41444 13.8007C6.34771 13.7422 6.30014 13.6689 6.27672 13.5887C6.2533 13.5085 6.25489 13.4242 6.28131 13.3447L7.16568 10.6901C7.2652 10.3926 7.4484 10.1219 7.69841 9.90287L17.1875 1.57409Z" stroke="#636363" stroke-width="2" stroke-linecap="round" stroke-linejoin="round"/>
</svg>
